<svg width="1178" height="1062" viewBox="0 0 1178 1062" fill="none" xmlns="http://www.w3.org/2000/svg">
<rect width="1178" height="1062" rx="250" fill="#353434"/>
<path d="M533.074 656.241C504.066 656.241 480.465 681.111 480.465 711.683C480.465 742.255 504.064 767.125 533.074 767.125C562.072 767.125 585.662 742.255 585.662 711.683C585.662 681.111 562.072 656.241 533.074 656.241ZM533.074 723.417C526.934 723.417 521.939 718.152 521.939 711.683C521.939 705.214 526.935 699.949 533.074 699.949C539.203 699.949 544.189 705.214 544.189 711.683C544.189 718.152 539.201 723.417 533.074 723.417Z" fill="#BB86FC"/>
<path d="M533.074 656.241C504.066 656.241 480.465 681.111 480.465 711.683C480.465 742.255 504.064 767.125 533.074 767.125C562.072 767.125 585.662 742.255 585.662 711.683C585.662 681.111 562.072 656.241 533.074 656.241ZM533.074 723.417C526.934 723.417 521.939 718.152 521.939 711.683C521.939 705.214 526.935 699.949 533.074 699.949C539.203 699.949 544.189 705.214 544.189 711.683C544.189 718.152 539.201 723.417 533.074 723.417Z" stroke="white"/>
<path d="M648.119 656.241C619.123 656.241 595.533 681.111 595.533 711.683C595.533 742.253 619.121 767.125 648.119 767.125C677.127 767.125 700.728 742.255 700.728 711.683C700.728 681.111 677.129 656.241 648.119 656.241ZM648.119 723.417C641.992 723.417 637.006 718.152 637.006 711.683C637.006 705.214 641.99 699.949 648.119 699.949C654.26 699.949 659.254 705.214 659.254 711.683C659.254 718.152 654.26 723.417 648.119 723.417Z" fill="#BB86FC"/>
<path d="M648.119 656.241C619.123 656.241 595.533 681.111 595.533 711.683C595.533 742.253 619.121 767.125 648.119 767.125C677.127 767.125 700.728 742.255 700.728 711.683C700.728 681.111 677.129 656.241 648.119 656.241ZM648.119 723.417C641.992 723.417 637.006 718.152 637.006 711.683C637.006 705.214 641.99 699.949 648.119 699.949C654.26 699.949 659.254 705.214 659.254 711.683C659.254 718.152 654.26 723.417 648.119 723.417Z" stroke="white"/>
<path d="M965.514 395.991C953.32 395.991 941.174 397.934 929.549 401.649C908.266 349.022 875.924 301.525 835.123 263.28C826.564 255.255 813.457 256.066 805.85 265.085C798.236 274.103 799.004 287.916 807.562 295.935C848.582 334.386 879.986 383.338 898.385 437.523C905.326 457.912 910.443 479.195 913.603 500.77C916.143 518.183 917.428 535.998 917.428 553.724C917.428 555.448 917.406 557.151 917.389 558.818C917.098 580.697 914.838 602.54 910.66 623.765C892.381 717.242 836.703 798.913 760.289 848.288C765.402 830.64 768 812.321 768 793.582C768 777.674 766.115 762.01 762.377 746.777C794.885 736.852 824.277 717.216 846.84 690.003C875.125 655.895 890.697 612.136 890.697 566.792C890.697 463.453 810.93 379.38 712.881 379.38C666.643 379.38 623.064 397.997 590.162 431.165C557.262 397.993 513.691 379.38 467.463 379.38C369.414 379.38 289.646 463.453 289.646 566.792C289.646 612.14 305.217 655.893 333.492 690.003C356.053 717.22 385.443 736.854 417.953 746.779C414.227 761.998 412.344 777.657 412.344 793.582C412.344 812.331 414.965 830.656 420.084 848.316C343.396 798.806 287.629 716.818 269.502 622.936C265.305 601.348 263.088 579.036 262.914 556.624V556.599C262.914 556.519 262.912 556.424 262.912 556.346C262.896 555.471 262.896 554.596 262.896 553.721C262.896 536.811 264.07 519.821 266.389 503.213C269.447 481.191 274.559 459.442 281.596 438.552C327.762 301.153 451.766 208.838 590.283 208.838C633.498 208.855 675.477 217.605 715.055 234.839C725.646 239.441 737.768 234.141 742.141 222.987C746.514 211.833 741.478 199.053 730.894 194.443C700.812 181.344 669.508 172.61 637.352 168.294L675.748 127.828C683.846 119.295 683.846 105.457 675.748 96.9209C667.648 88.3893 654.521 88.3893 646.42 96.9209L610.902 134.351V102.853C610.902 90.7851 601.617 81 590.166 81C578.715 81 569.43 90.7851 569.43 102.853V134.229L534.035 96.9291C525.937 88.3975 512.807 88.3975 504.709 96.9291C496.611 105.463 496.611 119.301 504.709 127.836L543.131 168.329C413.896 185.878 301.668 274.784 250.482 402.299C238.262 398.144 225.42 395.988 212.486 395.988C144.396 395.991 89 454.38 89 526.149C89 597.905 144.396 656.284 212.486 656.284C219.732 656.284 226.896 655.609 233.939 654.308C248.127 710.17 274.219 762.428 310.168 806.595C349.316 854.693 399.297 892.158 454.961 915.303C488.834 957.13 537.785 981 590.162 981C642.537 981 691.502 957.124 725.383 915.303C780.91 892.212 830.789 854.86 869.891 806.924C905.885 762.794 932.035 710.536 946.279 654.689C952.611 655.734 959.031 656.284 965.514 656.284C1033.6 656.284 1089 597.905 1089 526.149C1089 454.38 1033.6 395.991 965.514 395.991ZM231.42 463.655C225.354 461.605 218.977 460.501 212.488 460.501C178.141 460.501 150.195 489.952 150.195 526.149C150.195 562.346 178.141 591.796 212.488 591.796C216.092 591.796 219.643 591.456 223.119 590.832C223.74 597.752 224.529 604.639 225.498 611.479C221.221 612.195 216.881 612.576 212.488 612.576C167.264 612.578 130.473 573.806 130.473 526.149C130.473 478.481 167.264 439.696 212.486 439.696C220.652 439.696 228.752 441.016 236.494 443.51C234.631 450.169 232.943 456.891 231.42 463.655ZM223.992 507.838C222.584 520.437 221.742 533.182 221.502 545.916C218.723 547.324 215.666 548.088 212.486 548.088C201.006 548.088 191.666 538.245 191.666 526.147C191.666 514.048 201.006 504.205 212.486 504.205C216.678 504.207 220.641 505.49 223.992 507.838ZM696.637 883.373C670.574 917.642 631.766 937.294 590.16 937.294C548.551 937.294 509.75 917.644 483.695 883.361C483.152 882.649 482.631 881.918 482.104 881.198H698.24C697.709 881.924 697.185 882.659 696.637 883.373ZM716.264 738.927C723.072 756.352 726.522 774.743 726.522 793.591C726.522 808.661 724.344 823.368 720.041 837.494H460.305C456.006 823.372 453.818 808.663 453.818 793.591C453.818 774.708 457.262 756.317 464.057 738.927C466.49 732.694 466.061 725.628 462.891 719.774C459.721 713.92 454.164 709.935 447.836 708.976C381.299 698.88 331.121 637.759 331.121 566.796C331.121 487.556 392.283 423.09 467.465 423.09C509.08 423.09 547.902 442.786 573.971 477.126C577.904 482.309 583.863 485.329 590.164 485.329C596.465 485.329 602.422 482.311 606.355 477.126C632.426 442.786 671.254 423.09 712.883 423.09C788.063 423.09 849.227 487.558 849.227 566.796C849.227 637.757 799.043 698.88 732.49 708.976C726.16 709.935 720.605 713.922 717.436 719.774C714.262 725.628 713.832 732.694 716.264 738.927ZM965.514 612.578C961.898 612.578 958.314 612.331 954.769 611.844C955.746 605.002 956.545 598.117 957.176 591.205C959.926 591.596 962.711 591.798 965.514 591.798C999.861 591.798 1027.81 562.348 1027.81 526.151C1027.81 489.954 999.861 460.504 965.514 460.504C959.787 460.504 954.152 461.343 948.746 462.934C947.211 456.177 945.508 449.471 943.635 442.829C950.693 440.773 958.002 439.698 965.514 439.698C1010.74 439.698 1047.53 478.481 1047.53 526.151C1047.53 573.806 1010.74 612.578 965.514 612.578ZM956.191 506.529C959.039 505.026 962.195 504.207 965.514 504.207C976.994 504.207 986.334 514.05 986.334 526.149C986.334 538.247 976.994 548.09 965.514 548.09C962.996 548.09 960.777 547.637 958.836 546.948C958.615 533.439 957.723 519.912 956.191 506.529Z" fill="#BB86FC"/>
<path d="M786.168 224.533C785.223 223.905 784.273 223.284 783.318 222.662C773.572 216.331 760.795 219.529 754.785 229.804C748.775 240.079 751.81 253.538 761.562 259.872C762.402 260.415 763.24 260.967 764.076 261.522C767.506 263.799 771.328 264.884 775.101 264.884C781.99 264.884 788.73 261.269 792.672 254.67C798.771 244.455 795.859 230.961 786.168 224.533Z" fill="#BB86FC"/>
<path d="M786.168 224.533C785.223 223.905 784.273 223.284 783.318 222.662C773.572 216.331 760.795 219.529 754.785 229.804C748.775 240.079 751.81 253.538 761.562 259.872C762.402 260.415 763.24 260.967 764.076 261.522C767.506 263.799 771.328 264.884 775.101 264.884C781.99 264.884 788.73 261.269 792.672 254.67C798.771 244.455 795.859 230.961 786.168 224.533Z" stroke="white"/>
<path d="M482.486 616.395C509.673 616.395 531.712 594.15 531.712 566.71C531.712 539.27 509.673 517.025 482.486 517.025C455.299 517.025 433.259 539.27 433.259 566.71C433.259 594.15 455.299 616.395 482.486 616.395Z" fill="#BB86FC"/>
<path d="M482.486 616.395C509.673 616.395 531.712 594.15 531.712 566.71C531.712 539.27 509.673 517.025 482.486 517.025C455.299 517.025 433.259 539.27 433.259 566.71C433.259 594.15 455.299 616.395 482.486 616.395Z" stroke="white"/>
<path d="M712.798 616.395C739.985 616.395 762.025 594.15 762.025 566.71C762.025 539.27 739.985 517.025 712.798 517.025C685.611 517.025 663.572 539.27 663.572 566.71C663.572 594.15 685.611 616.395 712.798 616.395Z" fill="#BB86FC"/>
<path d="M712.798 616.395C739.985 616.395 762.025 594.15 762.025 566.71C762.025 539.27 739.985 517.025 712.798 517.025C685.611 517.025 663.572 539.27 663.572 566.71C663.572 594.15 685.611 616.395 712.798 616.395Z" stroke="white"/>
</svg>
