<svg width="1000" height="900" viewBox="0 0 1000 900" fill="none" xmlns="http://www.w3.org/2000/svg">
    <g id="monky">
        <g id="nose" >
            <path id="left" d="M444.074 575.241C415.066 575.241 391.465 600.111 391.465 630.683C391.465 661.255 415.064 686.125 444.074 686.125C473.072 686.125 496.662 661.255 496.662 630.683C496.662 600.111 473.072 575.241 444.074 575.241ZM444.074 642.417C437.934 642.417 432.939 637.152 432.939 630.683C432.939 624.214 437.935 618.949 444.074 618.949C450.203 618.949 455.189 624.214 455.189 630.683C455.189 637.152 450.201 642.417 444.074 642.417Z" fill="black" />
            <path id="right" d="M559.119 575.241C530.123 575.241 506.533 600.111 506.533 630.683C506.533 661.253 530.121 686.125 559.119 686.125C588.127 686.125 611.728 661.255 611.728 630.683C611.728 600.111 588.129 575.241 559.119 575.241ZM559.119 642.417C552.992 642.417 548.006 637.152 548.006 630.683C548.006 624.214 552.99 618.949 559.119 618.949C565.26 618.949 570.254 624.214 570.254 630.683C570.254 637.152 565.26 642.417 559.119 642.417Z" fill="black" />
        </g>
        <g id="fullface">
            <path id="Face" d="M876.514 314.991C864.32 314.991 852.174 316.934 840.549 320.649C819.266 268.022 786.924 220.525 746.123 182.28C737.564 174.255 724.457 175.066 716.85 184.085C709.236 193.103 710.004 206.916 718.562 214.935C759.582 253.386 790.986 302.338 809.385 356.523C816.326 376.912 821.443 398.195 824.603 419.77C827.143 437.183 828.428 454.998 828.428 472.724C828.428 474.448 828.406 476.151 828.389 477.818C828.098 499.697 825.838 521.54 821.66 542.765C803.381 636.242 747.703 717.913 671.289 767.288C676.402 749.64 679 731.321 679 712.582C679 696.674 677.115 681.01 673.377 665.777C705.885 655.852 735.277 636.216 757.84 609.003C786.125 574.895 801.697 531.136 801.697 485.792C801.697 382.453 721.93 298.38 623.881 298.38C577.643 298.38 534.064 316.997 501.162 350.165C468.262 316.993 424.691 298.38 378.463 298.38C280.414 298.38 200.646 382.453 200.646 485.792C200.646 531.14 216.217 574.893 244.492 609.003C267.053 636.22 296.443 655.854 328.953 665.779C325.227 680.998 323.344 696.657 323.344 712.582C323.344 731.331 325.965 749.656 331.084 767.316C254.396 717.806 198.629 635.818 180.502 541.936C176.305 520.348 174.088 498.036 173.914 475.624V475.599C173.914 475.519 173.912 475.424 173.912 475.346C173.896 474.471 173.896 473.596 173.896 472.721C173.896 455.811 175.07 438.821 177.389 422.213C180.447 400.191 185.559 378.442 192.596 357.552C238.762 220.153 362.766 127.838 501.283 127.838C544.498 127.855 586.477 136.605 626.055 153.839C636.646 158.441 648.768 153.141 653.141 141.987C657.514 130.833 652.478 118.053 641.894 113.443C611.812 100.344 580.508 91.6104 548.352 87.2942L586.748 46.8282C594.846 38.2945 594.846 24.4566 586.748 15.9209C578.648 7.38926 565.521 7.38926 557.42 15.9209L521.902 53.3509V21.8529C521.902 9.78511 512.617 0 501.166 0C489.715 0 480.43 9.78511 480.43 21.8529V53.2295L445.035 15.9291C436.937 7.39749 423.807 7.39749 415.709 15.9291C407.611 24.4628 407.611 38.3007 415.709 46.8364L454.131 87.3292C324.896 104.878 212.668 193.784 161.482 321.299C149.262 317.144 136.42 314.988 123.486 314.988C55.3965 314.991 0 373.38 0 445.149C0 516.905 55.3965 575.284 123.486 575.284C130.732 575.284 137.896 574.609 144.939 573.308C159.127 629.17 185.219 681.428 221.168 725.595C260.316 773.693 310.297 811.158 365.961 834.303C399.834 876.13 448.785 900 501.162 900C553.537 900 602.502 876.124 636.383 834.303C691.91 811.212 741.789 773.86 780.891 725.924C816.885 681.794 843.035 629.536 857.279 573.689C863.611 574.734 870.031 575.284 876.514 575.284C944.603 575.284 1000 516.905 1000 445.149C1000 373.38 944.603 314.991 876.514 314.991ZM142.42 382.655C136.354 380.605 129.977 379.501 123.488 379.501C89.1406 379.501 61.1953 408.952 61.1953 445.149C61.1953 481.346 89.1406 510.796 123.488 510.796C127.092 510.796 130.643 510.456 134.119 509.832C134.74 516.752 135.529 523.639 136.498 530.479C132.221 531.195 127.881 531.576 123.488 531.576C78.2637 531.578 41.4727 492.806 41.4727 445.149C41.4727 397.481 78.2637 358.696 123.486 358.696C131.652 358.696 139.752 360.016 147.494 362.51C145.631 369.169 143.943 375.891 142.42 382.655ZM134.992 426.838C133.584 439.437 132.742 452.182 132.502 464.916C129.723 466.324 126.666 467.088 123.486 467.088C112.006 467.088 102.666 457.245 102.666 445.147C102.666 433.048 112.006 423.205 123.486 423.205C127.678 423.207 131.641 424.49 134.992 426.838ZM607.637 802.373C581.574 836.642 542.766 856.294 501.16 856.294C459.551 856.294 420.75 836.644 394.695 802.361C394.152 801.649 393.631 800.918 393.104 800.198H609.24C608.709 800.924 608.185 801.659 607.637 802.373ZM627.264 657.927C634.072 675.352 637.522 693.743 637.522 712.591C637.522 727.661 635.344 742.368 631.041 756.494H371.305C367.006 742.372 364.818 727.663 364.818 712.591C364.818 693.708 368.262 675.317 375.057 657.927C377.49 651.694 377.061 644.628 373.891 638.774C370.721 632.92 365.164 628.935 358.836 627.976C292.299 617.88 242.121 556.759 242.121 485.796C242.121 406.556 303.283 342.09 378.465 342.09C420.08 342.09 458.902 361.786 484.971 396.126C488.904 401.309 494.863 404.329 501.164 404.329C507.465 404.329 513.422 401.311 517.355 396.126C543.426 361.786 582.254 342.09 623.883 342.09C699.063 342.09 760.227 406.558 760.227 485.796C760.227 556.757 710.043 617.88 643.49 627.976C637.16 628.935 631.605 632.922 628.436 638.774C625.262 644.628 624.832 651.694 627.264 657.927ZM876.514 531.578C872.898 531.578 869.314 531.331 865.769 530.844C866.746 524.002 867.545 517.117 868.176 510.205C870.926 510.596 873.711 510.798 876.514 510.798C910.861 510.798 938.807 481.348 938.807 445.151C938.807 408.954 910.861 379.504 876.514 379.504C870.787 379.504 865.152 380.343 859.746 381.934C858.211 375.177 856.508 368.471 854.635 361.829C861.693 359.773 869.002 358.698 876.514 358.698C921.736 358.698 958.527 397.481 958.527 445.151C958.527 492.806 921.736 531.578 876.514 531.578ZM867.191 425.529C870.039 424.026 873.195 423.207 876.514 423.207C887.994 423.207 897.334 433.05 897.334 445.149C897.334 457.247 887.994 467.09 876.514 467.09C873.996 467.09 871.777 466.637 869.836 465.948C869.615 452.439 868.723 438.912 867.191 425.529Z" fill="black" />
            <path id="Face dot" d="M697.168 143.533C696.223 142.905 695.273 142.284 694.318 141.662C684.572 135.331 671.795 138.529 665.785 148.804C659.775 159.079 662.81 172.538 672.562 178.872C673.402 179.415 674.24 179.967 675.076 180.522C678.506 182.799 682.328 183.884 686.101 183.884C692.99 183.884 699.73 180.269 703.672 173.67C709.771 163.455 706.859 149.961 697.168 143.533Z" fill="black" />
        </g>
        <g id="eyeskind">
            <path id="left_2" d="M380.143 430.267C346.422 430.267 318.99 459.176 318.99 494.712C318.99 506.78 328.273 516.565 339.727 516.565C351.18 516.565 360.463 506.78 360.463 494.712C360.463 483.277 369.291 473.973 380.143 473.973C390.994 473.973 399.822 483.277 399.822 494.712C399.822 506.78 409.106 516.565 420.559 516.565C432.012 516.565 441.295 506.78 441.295 494.712C441.295 459.176 413.863 430.267 380.143 430.267Z" fill="black" />
            <path id="right_2" d="M634.822 430.267C601.089 430.267 573.648 459.176 573.648 494.712C573.648 506.782 582.933 516.565 594.384 516.565C605.835 516.565 615.12 506.78 615.12 494.712C615.12 483.277 623.958 473.973 634.82 473.973C645.669 473.973 654.497 483.277 654.497 494.712C654.497 506.78 663.783 516.565 675.234 516.565C686.685 516.565 695.97 506.78 695.97 494.712C695.972 459.176 668.54 430.267 634.822 430.267Z" fill="black" />
        </g>
        <g id="eyessurprised" visibility="hidden">
            <path id="right_3" d="M634.82 430.267C605.812 430.267 582.21 455.138 582.21 485.71C582.21 516.281 605.81 541.152 634.82 541.152C663.818 541.152 687.408 516.281 687.408 485.71C687.408 455.138 663.818 430.267 634.82 430.267ZM634.82 497.444C628.679 497.444 623.685 492.179 623.685 485.71C623.685 479.24 628.681 473.975 634.82 473.975C640.949 473.975 645.935 479.24 645.935 485.71C645.935 492.179 640.947 497.444 634.82 497.444Z" fill="black" />
            <path id="left_3" d="M380.153 430.267C351.146 430.267 327.544 455.138 327.544 485.709C327.544 516.281 351.144 541.152 380.153 541.152C409.151 541.152 432.741 516.281 432.741 485.709C432.741 455.138 409.151 430.267 380.153 430.267ZM380.153 497.444C374.013 497.444 369.019 492.179 369.019 485.709C369.019 479.24 374.015 473.975 380.153 473.975C386.282 473.975 391.269 479.24 391.269 485.709C391.269 492.179 386.28 497.444 380.153 497.444Z" fill="black" />
        </g>
        <g id="eyesclose" visibility="hidden">
            <rect id="left_4" x="313.966" y="457.422" width="132.353" height="43.5222" rx="21.7611" fill="black" />
            <rect id="right_4" x="568.633" y="457.422" width="132.353" height="43.5222" rx="21.7611" fill="black" />
        </g>
        <g id="eyesangry" visibility="hidden">
            <rect id="left eyebrow" width="132.436" height="43.4954" rx="21.7477" transform="matrix(0.965321 0.261067 -0.256588 0.966521 316.22 410.863)" fill="black" />
            <rect id="right eyebrow" width="132.436" height="43.4954" rx="21.7477" transform="matrix(0.965321 -0.261067 0.256588 0.966521 559.131 445.438)" fill="black" />
            <ellipse id="left_5" rx="29.7356" ry="30.0126" transform="matrix(1 0 0 -1 391.465 518.32)" fill="black" />
            <ellipse id="right_5" rx="29.7356" ry="30.0126" transform="matrix(1 0 0 -1 611.728 517.49)" fill="black" />
        </g>
        <g id="eyessmall" visibility="hidden">
            <path id="left_6" d="M392.531 468.095C391.585 467.467 390.636 466.846 389.681 466.224C379.935 459.893 367.158 463.091 361.148 473.366C355.138 483.641 358.173 497.1 367.925 503.434C368.765 503.977 369.603 504.529 370.439 505.085C373.869 507.361 377.691 508.446 381.464 508.446C388.353 508.446 395.093 504.831 399.035 498.233C405.134 488.017 402.222 474.523 392.531 468.095Z" fill="black" />
            <path id="right_6" d="M647.197 468.095C646.252 467.467 645.303 466.846 644.348 466.224C634.601 459.893 621.824 463.091 615.814 473.366C609.805 483.641 612.84 497.101 622.592 503.434C623.431 503.977 624.269 504.529 625.105 505.085C628.535 507.361 632.357 508.446 636.131 508.446C643.019 508.446 649.76 504.831 653.701 498.233C659.801 488.017 656.889 474.523 647.197 468.095Z" fill="black" />
        </g>
        <g id="eyesnormal" visibility="hidden">
            <ellipse id="left_7" cx="380.143" cy="485.71" rx="54.9304" ry="55.4421" fill="black" />
            <ellipse id="right_7" cx="637.141" cy="485.71" rx="54.9304" ry="55.4421" fill="black" />
        </g>
    </g>
</svg>